<?xml version="1.0" encoding="iso-8859-1"?>
<!-- Generator: Adobe Illustrator 19.0.0, SVG Export Plug-In . SVG Version: 6.00 Build 0)  -->
<svg version="1.1" id="Layer_1" xmlns="http://www.w3.org/2000/svg" xmlns:xlink="http://www.w3.org/1999/xlink" x="0px" y="0px"
	 viewBox="0 0 512 512" style="enable-background:new 0 0 512 512;" xml:space="preserve">
<g>
	<g>
		<path d="M344.685,359.752c-48.545,0-92.94-18.077-126.833-47.841l-26.869,26.869L214,361.796c2.466,2.466,3.795,5.845,3.672,9.331
			c-0.126,3.485-1.692,6.761-4.328,9.046l-102.779,89.074v35.842H435.84V336.755C408.692,351.419,377.645,359.752,344.685,359.752z"
			/>
	</g>
</g>
<g>
	<g>
		<path d="M152.247,167.313c0-25.163,4.862-49.209,13.684-71.261h-55.366v227.136l21.261-24.532c2.283-2.636,5.56-4.202,9.045-4.326
			c3.51-0.133,6.865,1.206,9.331,3.671l23.016,23.016l26.869-26.87C170.323,260.255,152.247,215.858,152.247,167.313z"/>
	</g>
</g>
<g>
	<g>
		<path d="M164.345,347.674c-0.003-0.003-0.006-0.005-0.01-0.009c-0.004-0.004-0.005-0.006-0.009-0.01l-22.35-22.35L16.791,469.75
			c-1.058,1.221-2.34,2.226-3.78,2.961l-1.966,1.004c-5.835,2.98-9.767,8.401-10.789,14.872c-1.023,6.471,1.049,12.841,5.682,17.474
			c4.633,4.633,11.004,6.706,17.474,5.682c6.471-1.021,11.893-4.954,14.872-10.79l1.006-1.967c0.734-1.438,1.74-2.721,2.96-3.779
			l144.446-125.183L164.345,347.674z"/>
	</g>
</g>
<g>
	<g>
		<path d="M344.685,0c-92.256,0-167.313,75.057-167.313,167.314s75.057,167.314,167.313,167.314
			c92.258,0,167.315-75.057,167.315-167.314S436.943,0,344.685,0z M344.685,299.669c-72.982,0-132.355-59.375-132.355-132.355
			S271.704,34.959,344.685,34.959s132.356,59.373,132.356,132.355S417.666,299.669,344.685,299.669z"/>
	</g>
</g>
<g>
	<g>
		<path d="M344.686,60.083c-59.127,0-107.231,48.104-107.231,107.231s48.104,107.231,107.231,107.231
			s107.231-48.104,107.231-107.231S403.813,60.083,344.686,60.083z M401.691,115.487l-12.563,93.222
			c-0.693,5.149-4.485,9.34-9.54,10.543c-0.969,0.231-1.945,0.342-2.911,0.342c-4.078,0-7.979-1.991-10.356-5.453l-21.637-31.522
			l-21.636,31.522c-2.941,4.284-8.218,6.316-13.268,5.112c-5.054-1.203-8.846-5.394-9.54-10.543l-12.563-93.222
			c-0.927-6.875,3.897-13.2,10.771-14.127c6.874-0.922,13.2,3.897,14.127,10.772l8.208,60.908l13.541-19.729
			c2.343-3.413,6.217-5.453,10.357-5.453s8.015,2.04,10.357,5.453l13.542,19.73l8.208-60.91c0.926-6.876,7.241-11.703,14.127-10.772
			C397.796,102.287,402.619,108.612,401.691,115.487z"/>
	</g>
</g>
<g>
</g>
<g>
</g>
<g>
</g>
<g>
</g>
<g>
</g>
<g>
</g>
<g>
</g>
<g>
</g>
<g>
</g>
<g>
</g>
<g>
</g>
<g>
</g>
<g>
</g>
<g>
</g>
<g>
</g>
</svg>
